<svg xmlns="http://www.w3.org/2000/svg" class="linechart" width="654px" height="462px"><defs><marker id="arrow" viewBox="-8 -7 12 12" refX="-7px" markerWidth="5" markerHeight="5" orient="auto" style="stroke-linejoin: round; stroke-width: 3px;"><path d="M-6,-3L1,0L-6,3Z" style="fill:rgb(89, 195, 100); stroke:rgb(89, 195, 100); stroke-width:3px; "/></marker></defs><defs><marker id="cicle" viewBox="-5 -5 12 12" markerWidth="5" markerHeight="5" orient="auto"><circle r="3" x0="0" y0="0" style="fill:rgb(89, 195, 100); stroke:rgb(89, 195, 100); stroke-width:1px; "/></marker></defs><g transform="translate(80,20)"><g class="x axis" transform="translate(0,407)" fill="none" font-size="10" font-family="sans-serif" text-anchor="middle"><path class="domain" stroke="currentColor" d="M0.5,0.5H509.5" style="fill:none; stroke:rgb(113, 113, 113); stroke-width:2px; "/><g class="tick" opacity="1" transform="translate(103.50706599089557,0)"><line stroke="currentColor" y2="6" style="stroke:rgb(113, 113, 113); stroke-width:2px; "/><text fill="currentColor" y="9" dy="0.71em" style="fill:rgb(113, 113, 113); font-size:26.6667px; text-anchor:middle; visibility:visible; font-family:Rubik-Light; ">1960</text></g><g class="tick" opacity="1" transform="translate(224.69754218137177,0)"><line stroke="currentColor" y2="6" style="stroke:rgb(113, 113, 113); stroke-width:2px; "/><text fill="currentColor" y="9" dy="0.71em" style="fill:rgb(113, 113, 113); font-size:26.6667px; text-anchor:middle; visibility:visible; font-family:Rubik-Light; ">1980</text></g><g class="tick" opacity="1" transform="translate(345.8880183718479,0)"><line stroke="currentColor" y2="6" style="stroke:rgb(113, 113, 113); stroke-width:2px; "/><text fill="currentColor" y="9" dy="0.71em" style="fill:rgb(113, 113, 113); font-size:26.6667px; text-anchor:middle; visibility:visible; font-family:Rubik-Light; ">2000</text></g><g class="tick" opacity="1" transform="translate(467.0784945623242,0)"><line stroke="currentColor" y2="6" style="stroke:rgb(113, 113, 113); stroke-width:2px; "/><text fill="currentColor" y="9" dy="0.71em" style="fill:rgb(113, 113, 113); font-size:26.6667px; text-anchor:middle; visibility:visible; font-family:Rubik-Light; ">2020</text></g></g><g class="y axis" fill="none" font-size="10" font-family="sans-serif" text-anchor="end"><path class="domain" stroke="currentColor" d="M0.5,407.5V0.5" style="fill:none; stroke:rgb(113, 113, 113); stroke-width:2px; "/><g class="tick" opacity="1" transform="translate(0,407.5)"><line stroke="currentColor" x2="-6" style="stroke:rgb(113, 113, 113); stroke-width:2px; "/><text fill="currentColor" x="-9" dy="0.32em" style="fill:rgb(113, 113, 113); font-size:26.6667px; text-anchor:end; visibility:visible; font-family:Rubik-Light; ">0%</text></g><g class="tick" opacity="1" transform="translate(0,326.1)"><line stroke="currentColor" x2="-6" style="stroke:rgb(113, 113, 113); stroke-width:2px; "/><text fill="currentColor" x="-9" dy="0.32em" style="fill:rgb(113, 113, 113); font-size:26.6667px; text-anchor:end; visibility:visible; font-family:Rubik-Light; ">20%</text></g><g class="tick" opacity="1" transform="translate(0,244.7)"><line stroke="currentColor" x2="-6" style="stroke:rgb(113, 113, 113); stroke-width:2px; "/><text fill="currentColor" x="-9" dy="0.32em" style="fill:rgb(113, 113, 113); font-size:26.6667px; text-anchor:end; visibility:visible; font-family:Rubik-Light; ">40%</text></g><g class="tick" opacity="1" transform="translate(0,163.3)"><line stroke="currentColor" x2="-6" style="stroke:rgb(113, 113, 113); stroke-width:2px; "/><text fill="currentColor" x="-9" dy="0.32em" style="fill:rgb(113, 113, 113); font-size:26.6667px; text-anchor:end; visibility:visible; font-family:Rubik-Light; ">60%</text></g><g class="tick" opacity="1" transform="translate(0,81.89999999999998)"><line stroke="currentColor" x2="-6" style="stroke:rgb(113, 113, 113); stroke-width:2px; "/><text fill="currentColor" x="-9" dy="0.32em" style="fill:rgb(113, 113, 113); font-size:26.6667px; text-anchor:end; visibility:visible; font-family:Rubik-Light; ">80%</text></g><g class="tick" opacity="1" transform="translate(0,0.5)"><line stroke="currentColor" x2="-6" style="stroke:rgb(113, 113, 113); stroke-width:2px; "/><text fill="currentColor" x="-9" dy="0.32em" style="fill:rgb(113, 113, 113); font-size:26.6667px; text-anchor:end; visibility:visible; font-family:Rubik-Light; ">100%</text></g></g><path marker-start="url(#cicle)" marker-end="url(#arrow)" class="line" d="M42.420814184674555,386.3470699L48.476190476190474,386.26611760000003L54.5315667677064,386.2370171L60.60353313125387,386.2613964L66.6589094227698,386.341494L72.71428571428571,386.4772285L78.76966200580164,386.4270454L84.84162836934911,386.4309119L90.89700466086504,386.4876884L96.95238095238095,386.59086290000005L103.00775724389688,386.7296092L109.07972360744435,386.5712455L115.13509989896026,386.4797112L121.19047619047619,386.4351447L127.24585248199212,386.4158936L133.3178188455396,386.41247480000004L139.37319513705552,386.1782056L145.42857142857142,385.96025710000004L151.48394772008734,385.7593212L157.55591408363483,385.5795086L163.61129037515076,385.41894709999997L169.66666666666666,385.1471932L175.72204295818258,384.9110518L181.79400932173007,384.6991676L187.849385613246,384.4970921L193.9047619047619,384.29770279999997L199.96013819627782,383.9745855L206.03210455982529,383.6598524L212.08748085134124,383.37556290000003L218.14285714285714,383.1604227L224.19823343437307,383.03177L230.27019979792053,382.8927795L236.32557608943645,382.85325980000005L242.38095238095238,382.86518490000003L248.4363286724683,382.8687665L254.50829503601577,382.8317295L260.5636713275317,382.68089530000003L266.61904761904765,382.5167522L272.6744239105636,382.3375094L278.74639027411104,382.1416203L284.8017665656269,381.92473L290.85714285714283,381.6329924L296.91251914865876,381.3187884L302.9844855122062,381.001247L309.03986180372215,380.7088582L315.09523809523813,380.4525296L321.15061438675406,380.0931079L327.2225807503015,379.8071904L333.27795704181744,379.56050769999996L339.3333333333333,379.3082898L345.38870962484924,379.0290878L351.4606759883967,378.6831785L357.5160522799126,378.3249778L363.57142857142856,377.9778882L369.62680486294454,377.68354580000005L375.698771226492,377.4561956L381.7541475180079,377.16905710000003L387.8095238095238,376.9411371L393.8649001010397,376.73320079999996L399.9368664645872,376.492501L405.9922427561031,376.1868033L412.04761904761904,375.75766250000004L418.10299533913496,375.2929906L424.1749617026825,374.77386210000003L430.2303379941984,374.17833970000004L436.2857142857143,373.4933994L442.3410905772302,372.66311939999997L448.41305694077766,371.7675159L454.4684332322936,370.8356894L460.5238095238095,369.9097237L466.57918581532545,369.00854430000004" style="fill:none; stroke:rgb(89, 195, 100); stroke-width:8px; "/><text class="endvalue" text-anchor="start" dy="-30px" dx="0" x="466.57918581532545" y="369.00854430000004" style="fill:rgb(40, 40, 40); font-size:34.6667px; text-anchor:start; visibility:visible; font-family:Rubik-Medium; ">9.3%</text><text class="startvalue" text-anchor="start" dy="-30px" dx="0" x="42.420814184674555" y="386.3470699" style="fill:rgb(40, 40, 40); font-size:34.6667px; text-anchor:middle; visibility:hidden; font-family:Rubik-Medium; ">5.1%</text></g></svg>