<svg xmlns="http://www.w3.org/2000/svg" class="linechart" width="654px" height="462px"><defs><marker id="arrow" viewBox="-8 -7 12 12" refX="-7px" markerWidth="5" markerHeight="5" orient="auto" style="stroke-linejoin: round; stroke-width: 3px;"><path d="M-6,-3L1,0L-6,3Z" style="fill:rgb(89, 195, 100); stroke:rgb(89, 195, 100); stroke-width:3px; "/></marker></defs><defs><marker id="cicle" viewBox="-5 -5 12 12" markerWidth="5" markerHeight="5" orient="auto"><circle r="3" x0="0" y0="0" style="fill:rgb(89, 195, 100); stroke:rgb(89, 195, 100); stroke-width:1px; "/></marker></defs><g transform="translate(80,20)"><g class="x axis" transform="translate(0,407)" fill="none" font-size="10" font-family="sans-serif" text-anchor="middle"><path class="domain" stroke="currentColor" d="M0.5,0.5H509.5" style="fill:none; stroke:rgb(113, 113, 113); stroke-width:2px; "/><g class="tick" opacity="1" transform="translate(40.20236058389999,0)"><line stroke="currentColor" y2="6" style="stroke:rgb(113, 113, 113); stroke-width:2px; "/><text fill="currentColor" y="9" dy="0.71em" style="fill:rgb(113, 113, 113); font-size:26.6667px; text-anchor:middle; visibility:visible; font-family:Rubik-Light; ">1900</text></g><g class="tick" opacity="1" transform="translate(112.39281065676496,0)"><line stroke="currentColor" y2="6" style="stroke:rgb(113, 113, 113); stroke-width:2px; "/><text fill="currentColor" y="9" dy="0.71em" style="fill:rgb(113, 113, 113); font-size:26.6667px; text-anchor:middle; visibility:visible; font-family:Rubik-Light; ">1920</text></g><g class="tick" opacity="1" transform="translate(184.59314441666072,0)"><line stroke="currentColor" y2="6" style="stroke:rgb(113, 113, 113); stroke-width:2px; "/><text fill="currentColor" y="9" dy="0.71em" style="fill:rgb(113, 113, 113); font-size:26.6667px; text-anchor:middle; visibility:visible; font-family:Rubik-Light; ">1940</text></g><g class="tick" opacity="1" transform="translate(256.79347817655645,0)"><line stroke="currentColor" y2="6" style="stroke:rgb(113, 113, 113); stroke-width:2px; "/><text fill="currentColor" y="9" dy="0.71em" style="fill:rgb(113, 113, 113); font-size:26.6667px; text-anchor:middle; visibility:visible; font-family:Rubik-Light; ">1960</text></g><g class="tick" opacity="1" transform="translate(328.99381193645223,0)"><line stroke="currentColor" y2="6" style="stroke:rgb(113, 113, 113); stroke-width:2px; "/><text fill="currentColor" y="9" dy="0.71em" style="fill:rgb(113, 113, 113); font-size:26.6667px; text-anchor:middle; visibility:visible; font-family:Rubik-Light; ">1980</text></g><g class="tick" opacity="1" transform="translate(401.194145696348,0)"><line stroke="currentColor" y2="6" style="stroke:rgb(113, 113, 113); stroke-width:2px; "/><text fill="currentColor" y="9" dy="0.71em" style="fill:rgb(113, 113, 113); font-size:26.6667px; text-anchor:middle; visibility:visible; font-family:Rubik-Light; ">2000</text></g><g class="tick" opacity="1" transform="translate(473.39447945624374,0)"><line stroke="currentColor" y2="6" style="stroke:rgb(113, 113, 113); stroke-width:2px; "/><text fill="currentColor" y="9" dy="0.71em" style="fill:rgb(113, 113, 113); font-size:26.6667px; text-anchor:middle; visibility:visible; font-family:Rubik-Light; ">2020</text></g></g><g class="y axis" fill="none" font-size="10" font-family="sans-serif" text-anchor="end"><path class="domain" stroke="currentColor" d="M0.5,407.5V0.5" style="fill:none; stroke:rgb(113, 113, 113); stroke-width:2px; "/><g class="tick" opacity="1" transform="translate(0,373.5849748639228)"><line stroke="currentColor" x2="-6" style="stroke:rgb(113, 113, 113); stroke-width:2px; "/><text fill="currentColor" x="-9" dy="0.32em" style="fill:rgb(113, 113, 113); font-size:26.6667px; text-anchor:end; visibility:visible; font-family:Rubik-Light; ">0</text></g><g class="tick" opacity="1" transform="translate(0,282.3888310043586)"><line stroke="currentColor" x2="-6" style="stroke:rgb(113, 113, 113); stroke-width:2px; "/><text fill="currentColor" x="-9" dy="0.32em" style="fill:rgb(113, 113, 113); font-size:26.6667px; text-anchor:end; visibility:visible; font-family:Rubik-Light; ">1M</text></g><g class="tick" opacity="1" transform="translate(0,191.19268714479438)"><line stroke="currentColor" x2="-6" style="stroke:rgb(113, 113, 113); stroke-width:2px; "/><text fill="currentColor" x="-9" dy="0.32em" style="fill:rgb(113, 113, 113); font-size:26.6667px; text-anchor:end; visibility:visible; font-family:Rubik-Light; ">2M</text></g><g class="tick" opacity="1" transform="translate(0,99.99654328523017)"><line stroke="currentColor" x2="-6" style="stroke:rgb(113, 113, 113); stroke-width:2px; "/><text fill="currentColor" x="-9" dy="0.32em" style="fill:rgb(113, 113, 113); font-size:26.6667px; text-anchor:end; visibility:visible; font-family:Rubik-Light; ">3M</text></g><g class="tick" opacity="1" transform="translate(0,8.800399425665974)"><line stroke="currentColor" x2="-6" style="stroke:rgb(113, 113, 113); stroke-width:2px; "/><text fill="currentColor" x="-9" dy="0.32em" style="fill:rgb(113, 113, 113); font-size:26.6667px; text-anchor:end; visibility:visible; font-family:Rubik-Light; ">4M</text></g></g><path marker-start="url(#cicle)" marker-end="url(#arrow)" class="line" d="M39.70277240419294,257.49659840624093L43.31031817043003,373.0833333333333L46.917863936667125,368.6676160476532L50.52540970290421,372.43419918134094L54.13295546914131,373.07111305005617L57.75038492240918,371.1747804346404L61.35793068864627,370.01558625004145L64.96547645488337,371.8774467230783L68.57302222112045,366.24225460170817L72.19045167438833,372.0074012280782L75.79799744062544,364.9691564334286L79.40554320686252,363.62747876496667L83.01308897309961,368.3342941418465L86.63051842636749,372.90604802967033L90.23806419260458,372.68298226178985L93.84560995884168,370.13596515993606L97.45315572507877,373.04110951872633L101.07058517834665,370.93630251844763L104.67813094458373,372.0590182455027L108.28567671082082,372.5833960726952L111.89322247705792,308.6209742616249L115.51065193032579,263.6496022324458L119.11819769656289,363.85820500893135L122.72574346279997,359.0146866124061L126.33328922903708,372.7859427082073L129.95071868230494,372.4491553489339L133.55826444854205,372.6424911739162L137.16581021477913,368.22695628052384L140.7733559810162,99.05013816103761L144.3907854342841,372.3253109855726L147.9983312005212,372.07342723623253L151.60587696675827,33.91666666666668L155.21342273299538,372.6380225628671L158.83085218626326,370.2175857086904L162.43839795250034,372.56415368634083L166.04594371873742,348.26877139300205L169.65348948497453,372.54819436116543L173.2709189382424,371.94958287287125L176.87846470447948,372.8836137782809L180.4860104707166,321.722850661497L184.09355623695367,371.11057834936327L187.71098569022155,371.9240479525905L191.31853145645866,226.76751055589762L194.92607722269574,198.62912276031682L198.53362298893285,371.61015082542593L202.1510524422007,372.04916906196587L205.7585982084378,369.84176639984514L209.3661439746749,372.41249449910237L212.97368974091196,362.0659271936594L216.59111919417987,361.7972633538491L220.19866496041698,372.46073725920405L223.80621072665403,371.42274274979457L227.41375649289114,372.45699821730585L231.031185946159,371.9435639273765L234.6387317123961,369.26868983183164L238.2462774786332,372.57828908863905L241.85382324487028,372.3793902988814L245.4712526981382,372.11802215057986L249.07879846437524,372.7247500956775L252.68634423061235,189.48506780780605L256.29388999684943,369.5111803783542L259.91131945011733,371.5035425332541L263.5188652163544,371.5008978450822L267.1264109825915,369.73388136165926L270.73395674882863,371.96554219804665L274.3513862020965,230.39027737071885L277.95893196833356,371.53637314504357L281.56647773457064,372.4497025257971L285.1740235008077,371.1439561380158L288.7914529540756,372.34017595702176L292.3989987203127,337.8314639244188L296.00654448654984,371.6465380868259L299.6140902527869,371.2601400252929L303.23151970605477,363.0027851795287L306.83906547229185,365.24174170742486L310.44661123852893,369.90605968126613L314.05415700476607,347.5433972647431L317.6715864580339,371.1496102989351L321.27913222427105,369.8898267676591L324.88667799050813,372.4598252977655L328.49422375674516,371.1409466652685L332.11165321001306,362.41748832823805L335.71919897625014,372.079628574015L339.3267447424873,331.1035596073233L342.93429050872436,372.2954898465306L346.55171996199226,368.12600214927124L350.1592657282293,372.4189694253164L353.76681149446637,371.3584494683735L357.3743572607035,369.2330321395825L360.9917867139714,372.106257848022L364.5993324802085,368.44072004173063L368.20687824644557,358.58250808665565L371.81442401268265,371.9689164553695L375.4318534659505,371.15435249841585L379.03939923218763,371.8916733215204L382.6469449984247,371.011356944844L386.2544907646618,371.74366198003634L389.8719202179297,371.31120986585427L393.4794659841668,368.5487874722042L397.0870117504039,366.6471654804446L400.69455751664094,372.2021961913622L404.31198696990884,370.2599007194412L407.9195327361459,371.93772737416947L411.527078502383,363.0501159781918L415.13462426862014,351.0586438259538L418.752053721888,364.90860219390584L422.3595994881251,370.94268624851776L425.96714525436215,371.5402945792295L429.57469102059923,351.6236039371638L433.19212047386713,372.0688674290395L436.7996662401042,344.1067617795393L440.40721200634135,370.260721484736L444.01475777257843,372.1974539918815L447.6321872258463,371.106839307465L451.23973299208336,372.3592359510884L454.84727875832044,370.99868068084754L458.4548245245576,372.3233046704077L462.0722539778255,372.2000986800535L465.67979974406256,372.0070364435028L469.28734551029964,372.0162472540326" style="fill:none; stroke:rgb(89, 195, 100); stroke-width:8px; "/><text class="endvalue" text-anchor="start" dy="-30px" dx="0" x="469.28734551029964" y="372.0162472540326" style="fill:rgb(40, 40, 40); font-size:34.6667px; text-anchor:start; visibility:visible; font-family:Rubik-Medium; ">12k</text><text class="startvalue" text-anchor="start" dy="-30px" dx="0" x="39.70277240419294" y="257.49659840624093" style="fill:rgb(40, 40, 40); font-size:34.6667px; text-anchor:middle; visibility:hidden; font-family:Rubik-Medium; ">1.3M</text></g></svg>