<svg xmlns="http://www.w3.org/2000/svg" class="linechart" width="654px" height="462px"><defs><marker id="arrow" viewBox="-8 -7 12 12" refX="-7px" markerWidth="5" markerHeight="5" orient="auto" style="stroke-linejoin: round; stroke-width: 3px;"><path d="M-6,-3L1,0L-6,3Z" style="fill:rgb(89, 195, 100); stroke:rgb(89, 195, 100); stroke-width:3px; "/></marker></defs><defs><marker id="cicle" viewBox="-5 -5 12 12" markerWidth="5" markerHeight="5" orient="auto"><circle r="3" x0="0" y0="0" style="fill:rgb(89, 195, 100); stroke:rgb(89, 195, 100); stroke-width:1px; "/></marker></defs><g transform="translate(80,20)"><g class="x axis" transform="translate(0,407)" fill="none" font-size="10" font-family="sans-serif" text-anchor="middle"><path class="domain" stroke="currentColor" d="M0.5,0.5H509.5" style="fill:none; stroke:rgb(113, 113, 113); stroke-width:2px; "/><g class="tick" opacity="1" transform="translate(42.917271530293085,0)"><line stroke="currentColor" y2="6" style="stroke:rgb(113, 113, 113); stroke-width:2px; "/><text fill="currentColor" y="9" dy="0.71em" style="fill:rgb(113, 113, 113); font-size:26.6667px; text-anchor:middle; visibility:visible; font-family:Rubik-Light; ">2020</text></g><g class="tick" opacity="1" transform="translate(148.9619625150919,0)"><line stroke="currentColor" y2="6" style="stroke:rgb(113, 113, 113); stroke-width:2px; "/><text fill="currentColor" y="9" dy="0.71em" style="fill:rgb(113, 113, 113); font-size:26.6667px; text-anchor:middle; visibility:visible; font-family:Rubik-Light; ">2040</text></g><g class="tick" opacity="1" transform="translate(255.00665349989066,0)"><line stroke="currentColor" y2="6" style="stroke:rgb(113, 113, 113); stroke-width:2px; "/><text fill="currentColor" y="9" dy="0.71em" style="fill:rgb(113, 113, 113); font-size:26.6667px; text-anchor:middle; visibility:visible; font-family:Rubik-Light; ">2060</text></g><g class="tick" opacity="1" transform="translate(361.0513444846895,0)"><line stroke="currentColor" y2="6" style="stroke:rgb(113, 113, 113); stroke-width:2px; "/><text fill="currentColor" y="9" dy="0.71em" style="fill:rgb(113, 113, 113); font-size:26.6667px; text-anchor:middle; visibility:visible; font-family:Rubik-Light; ">2080</text></g><g class="tick" opacity="1" transform="translate(467.0960354694883,0)"><line stroke="currentColor" y2="6" style="stroke:rgb(113, 113, 113); stroke-width:2px; "/><text fill="currentColor" y="9" dy="0.71em" style="fill:rgb(113, 113, 113); font-size:26.6667px; text-anchor:middle; visibility:visible; font-family:Rubik-Light; ">2100</text></g></g><g class="y axis" fill="none" font-size="10" font-family="sans-serif" text-anchor="end"><path class="domain" stroke="currentColor" d="M0.5,407.5V0.5" style="fill:none; stroke:rgb(113, 113, 113); stroke-width:2px; "/><g class="tick" opacity="1" transform="translate(0,407.5)"><line stroke="currentColor" x2="-6" style="stroke:rgb(113, 113, 113); stroke-width:2px; "/><text fill="currentColor" x="-9" dy="0.32em" style="fill:rgb(113, 113, 113); font-size:26.6667px; text-anchor:end; visibility:visible; font-family:Rubik-Light; ">0</text></g><g class="tick" opacity="1" transform="translate(0,326.1)"><line stroke="currentColor" x2="-6" style="stroke:rgb(113, 113, 113); stroke-width:2px; "/><text fill="currentColor" x="-9" dy="0.32em" style="fill:rgb(113, 113, 113); font-size:26.6667px; text-anchor:end; visibility:visible; font-family:Rubik-Light; ">1B</text></g><g class="tick" opacity="1" transform="translate(0,244.7)"><line stroke="currentColor" x2="-6" style="stroke:rgb(113, 113, 113); stroke-width:2px; "/><text fill="currentColor" x="-9" dy="0.32em" style="fill:rgb(113, 113, 113); font-size:26.6667px; text-anchor:end; visibility:visible; font-family:Rubik-Light; ">2B</text></g><g class="tick" opacity="1" transform="translate(0,163.3)"><line stroke="currentColor" x2="-6" style="stroke:rgb(113, 113, 113); stroke-width:2px; "/><text fill="currentColor" x="-9" dy="0.32em" style="fill:rgb(113, 113, 113); font-size:26.6667px; text-anchor:end; visibility:visible; font-family:Rubik-Light; ">3B</text></g><g class="tick" opacity="1" transform="translate(0,81.89999999999998)"><line stroke="currentColor" x2="-6" style="stroke:rgb(113, 113, 113); stroke-width:2px; "/><text fill="currentColor" x="-9" dy="0.32em" style="fill:rgb(113, 113, 113); font-size:26.6667px; text-anchor:end; visibility:visible; font-family:Rubik-Light; ">4B</text></g><g class="tick" opacity="1" transform="translate(0,0.5)"><line stroke="currentColor" x2="-6" style="stroke:rgb(113, 113, 113); stroke-width:2px; "/><text fill="currentColor" x="-9" dy="0.32em" style="fill:rgb(113, 113, 113); font-size:26.6667px; text-anchor:end; visibility:visible; font-family:Rubik-Light; ">5B</text></g></g><path marker-start="url(#cicle)" marker-end="url(#arrow)" class="line" d="M42.41787639391952,245.53100184360002L47.7309984884351,244.85266365339996L53.02960385591649,244.3000513448L58.328209223397884,243.8702723688L63.62681459087927,243.5423654114L68.93993668539487,243.30034864080002L74.23854205287626,243.024591326L79.53714742035764,242.8200150552L84.83575278783904,242.68699882679996L90.14887488235462,242.622343051L95.447480249836,242.6157668264L100.7460856173174,242.469422162L106.04469098479879,242.38243340079998L111.35781307931437,242.3370489122L116.65641844679577,242.31192732559998L121.95502381427715,242.295363728L127.25362918175854,242.10584971319997L132.56675127627412,241.93524597660002L137.86535664375552,241.7790693318L143.16396201123692,241.638349326L148.46256737871832,241.5153573448L153.77568947323388,241.25177323719996L159.07429484071528,241.0062276138L164.37290020819668,240.7853645054L169.67150557567808,240.6010073434L174.98462767019365,240.4621720732L180.28323303767505,240.2008083134L185.58183840515645,239.99230783000002L190.88044377263782,239.8357509658L196.1935658671534,239.72778566879998L201.4921712346348,239.6693735986L206.79077660211618,239.5106332608L212.08938196959758,239.3989638568L217.40250406411317,239.341319877L222.70110943159457,239.3454716026L227.99971479907595,239.415294976L233.29832016655735,239.38607319L238.61144226107294,239.418151302L243.9100476285543,239.5088438446L249.2086529960357,239.65196734819997L254.50725836351708,239.84479352900001L259.8203804580327,239.93343487299998L265.1189858255141,240.0591784184L270.4175911929955,240.2263863912L275.7161965604769,240.4413458832L281.02931865499244,240.7079224176L286.32792402247384,240.84974124200002L291.62652938995524,241.03578883779997L296.92513475743664,241.2635867378L302.2382568519522,241.5287875308L307.5368622194336,241.83121539279998L312.83546758691494,242.0073776912L318.13407295439634,242.209648714L323.44719504891196,242.44472963479998L328.74580041639337,242.7200644022L334.04440578387477,243.03954963420003L339.34301115135617,243.23242375959998L344.65613324587173,243.46025780120002L349.9547386133531,243.72549237520002L355.2533439808345,244.03090379140002L360.5519493483159,244.38138101520002L365.8650714428315,244.61930320300002L371.1636768103129,244.89329560300004L376.4622821777943,245.2046348928L381.76088754527564,245.55765879700002L387.0740096397912,245.96142436800002L392.3726150072726,246.2600282208L397.671220374754,246.5888501956L402.9698257422354,246.96044778899997L408.282947836751,247.3846918906L413.58155320423236,247.86564957L418.88015857171376,248.2271674014L424.17876393919516,248.6302020004L429.4918860337107,249.0762785588L434.7904914011921,249.56615662L440.0890967686735,250.1028422046L445.3877021361549,250.51492889059998L450.7008242306705,250.95829222419997L455.9994295981519,251.4384451018L461.2980349656333,251.9601876814L466.5966403331147,252.526844339" style="fill:none; stroke:rgb(89, 195, 100); stroke-width:8px; "/><text class="endvalue" text-anchor="start" dy="-30px" dx="0" x="466.5966403331147" y="252.526844339" style="fill:rgb(40, 40, 40); font-size:34.6667px; text-anchor:start; visibility:visible; font-family:Rubik-Medium; ">1.9B</text><text class="startvalue" text-anchor="start" dy="-30px" dx="0" x="42.41787639391952" y="245.53100184360002" style="fill:rgb(40, 40, 40); font-size:34.6667px; text-anchor:middle; visibility:hidden; font-family:Rubik-Medium; ">2B</text></g></svg>